<?xml version="1.0" encoding="utf-8"?>
<!-- Generator: Adobe Illustrator 23.0.0, SVG Export Plug-In . SVG Version: 6.00 Build 0)  -->
<svg version="1.1" id="Camada_1" xmlns="http://www.w3.org/2000/svg" xmlns:xlink="http://www.w3.org/1999/xlink" x="0px" y="0px"
	 viewBox="0 0 1000 1000" style="enable-background:new 0 0 1000 1000;" xml:space="preserve">
<style type="text/css">
	.st0{fill:#FFA255;}
	.st1{fill:#593415;}
	.st2{opacity:0.1;}
	.st3{fill:#3E3D4D;}
	.st4{fill:#2D1E0A;}
</style>
<g>
	<path class="st0" d="M808.86,674.64c2-2,2-4,5-6c3-4,0-9,2-14s4-9,6-14c4-7,11-12,18-13c26-4,42-29,39-54c-1,14-4,27-15,37
		c-2,2-5,3-7,5c-10,5-21,5-30,11c-7,5-12,12-15,20C808.86,655.64,807.86,665.64,808.86,674.64L808.86,674.64z"/>
</g>
<g>
	<path class="st0" d="M792.88,533.27c5-3,6-9,5-13c-1-13-8-25-7-39c1-7,4-14,7-21c4-16,10-30,15-46c0-30,5-61,4-91
		c-7-10-10-23-21-31c-9-6-18-8-28-10c-13-1-26,1-39,3c-19,4-38,8-53,20c-9-32-14-66-35-94c-19-24-50-27-78-27c-36-2-73,4-107,18
		c-26,11-55,26-62,55c-9,35,3,68,16,99c-81,10-175,36-215,114c-9,28-9,58-2,87c3,10,7,17,12,26c4,5,8,10,13,14s10,7,16,9
		c3,0,5,1,7,2c8,1,16,1,24,1c1,17,2,33,7,49c0,1,0,3,0,4c6,18,13,36,26,52c1,1,0,2,1,3c23,30,55,50,92,53c28,2,56-4,83-11
		c38,5,77,7,115,6c12-1,24-1,36-2c17-2,33-3,50-7c-7-2-20-6-16-15c7-5,14-11,23-12c2-5,8-7,13-9c13-4,26-5,40-4c3-7,6-13,8-20
		c0-1,2-2,2-3c3-19-4-37,7-54c2-2,3-4,5-7c3-4,7-6,10-10c1-2,2-3,3-5c6-15-14-19-22-28c-6-8,3-15,8-21
		C768.88,556.27,783.88,548.27,792.88,533.27L792.88,533.27z"/>
</g>
<g id="Caminhao_4_">
	<g>
		<polyline class="st1" points="484.64,712.29 623.64,712.29 623.64,743.29 691.64,743.29 691.64,674.29 484.64,693.29 		"/>
		<path class="st1" d="M484.64,441.29h8v54h15v-52c0,0,16,1,16,2s1,50,1,50h14l-1-47c0,0,3-1,16,3l1,44h15l-1-42c0,0,16,3,17,4
			s2,38,2,38h26l-2-47c0,0-1-8-9-11c-10-2-92-20-118-20"/>
		<path class="st1" d="M484.64,410.29h4l1-67c0,0,125,4,128,7c0,6,3,76,3,76h-33c0,0,28,3,32,18c1,16,3,51,3,51h48l1-23h-6v-34h-20
			v-148c0,0,4-12,8-15s42-34,42-34l-17-16l-44,36c0,0-12,14-13,29s0,42,0,42h-9l-11-30c0,0-5-6-10-6s-107-2-107-2"/>
		<path class="st1" d="M645.64,338.29h21c0,0,11,1,16,13c9,0,17,0,17,0s1,0,2,2c0,2,0,64,0,64s1,3-3,3s-11,0-11,0s-6,11-14,11
			s-28,0-28,0v-3h26c0,0,8-1,12-8c-12,0-15,0-15,0s-3,2-3-3s0-64,0-64s-1-2,3-2s11,0,11,0s-6-10-14-10s-20,0-20,0V338.29z"/>
		<rect x="544.64" y="287.29" class="st1" width="26" height="4"/>
		<polygon class="st1" points="547.64,284.29 567.64,284.29 566.64,270.29 548.64,270.29 		"/>
		<polyline class="st1" points="484.64,291.29 497.64,291.29 497.64,287.29 484.64,287.29 		"/>
		<polyline class="st1" points="484.64,284.29 495.64,284.29 493.64,270.29 484.64,270.29 		"/>
	</g>
	<g class="st2">
		<polyline class="st3" points="481.64,712.29 620.64,712.29 620.64,743.29 688.64,743.29 688.64,674.29 481.64,693.29 		"/>
		<path class="st3" d="M481.64,441.29h8v54h15v-52c0,0,16,1,16,2s1,50,1,50h14l-1-47c0,0,3-1,16,3l1,44h15l-1-42c0,0,16,3,17,4
			s2,38,2,38h26l-2-47c0,0-1-8-9-11c-10-2-92-20-118-20"/>
		<path class="st3" d="M481.64,410.29h4l1-67c0,0,125,4,128,7c0,6,3,76,3,76h-33c0,0,28,3,32,18c1,16,3,51,3,51h48l1-23h-6v-34h-20
			v-148c0,0,4-12,8-15s42-34,42-34l-17-16l-44,36c0,0-12,14-13,29s0,42,0,42h-9l-11-30c0,0-5-6-10-6s-107-2-107-2"/>
		<path class="st3" d="M642.64,338.29h21c0,0,11,1,16,13c9,0,17,0,17,0s1,0,2,2c0,2,0,64,0,64s1,3-3,3s-11,0-11,0s-6,11-14,11
			s-28,0-28,0v-3h26c0,0,8-1,12-8c-12,0-15,0-15,0s-3,2-3-3s0-64,0-64s-1-2,3-2s11,0,11,0s-6-10-14-10s-20,0-20,0V338.29z"/>
		<rect x="541.64" y="287.29" class="st3" width="26" height="4"/>
		<polygon class="st3" points="544.64,284.29 564.64,284.29 563.64,270.29 545.64,270.29 		"/>
		<polyline class="st3" points="481.64,291.29 494.64,291.29 494.64,287.29 481.64,287.29 		"/>
		<polyline class="st3" points="481.64,284.29 492.64,284.29 490.64,270.29 481.64,270.29 		"/>
	</g>
	<g>
		<polyline class="st1" points="484.64,712.29 345.64,712.29 345.64,743.29 277.64,743.29 277.64,674.29 484.64,693.29 		"/>
		<path class="st1" d="M484.64,441.29h-8v54h-15v-52c0,0-16,1-16,2s-1,50-1,50h-14l1-47c0,0-3-1-16,3l-1,44h-15l1-42c0,0-16,3-17,4
			s-2,38-2,38h-26l2-47c0,0,1-8,9-11c10-2,92-20,118-20"/>
		<path class="st1" d="M484.64,410.29h-4l-1-67c0,0-125,4-128,7c0,6-3,76-3,76h33c0,0-28,3-32,18c-1,16-3,51-3,51h-48l-1-23h6v-34
			h20v-148c0,0-4-12-8-15s-42-34-42-34l17-16l44,36c0,0,12,14,13,29s0,42,0,42h9l11-30c0,0,5-6,10-6s107-2,107-2"/>
		<path class="st1" d="M323.64,338.29h-21c0,0-11,1-16,13c-9,0-17,0-17,0s-1,0-2,2c0,2,0,64,0,64s-1,3,3,3s11,0,11,0s6,11,14,11
			s28,0,28,0v-3h-26c0,0-8-1-12-8c12,0,15,0,15,0s3,2,3-3s0-64,0-64s1-2-3-2s-11,0-11,0s6-10,14-10s20,0,20,0V338.29z"/>
		<rect x="398.64" y="287.29" class="st1" width="26" height="4"/>
		<polygon class="st1" points="421.64,284.29 401.64,284.29 402.64,270.29 420.64,270.29 		"/>
		<polyline class="st1" points="484.64,291.29 471.64,291.29 471.64,287.29 484.64,287.29 		"/>
		<polyline class="st1" points="484.64,284.29 473.64,284.29 475.64,270.29 484.64,270.29 		"/>
	</g>
</g>
<g>
	<g>
		<g>
			<path class="st4" d="M303.09,541.08c0-19.55,13.21-30.76,28-30.76c7.67,0,13.88,3.58,17.93,7.68l-7.6,9.27
				c-2.91-2.62-5.92-4.48-10.01-4.48c-7.39,0-13.51,6.66-13.51,17.8c0,11.47,5.3,17.99,13.32,17.99c4.64,0,8.33-2.35,11.01-5.24
				l7.59,9.09c-4.91,5.72-11.54,8.63-19.11,8.63C315.8,571.05,303.09,560.96,303.09,541.08z"/>
			<path class="st4" d="M356.62,547.56c0-14.9,10.64-23.51,22.06-23.51c11.42,0,22.06,8.61,22.06,23.51
				c0,14.88-10.64,23.49-22.06,23.49C367.26,571.05,356.62,562.44,356.62,547.56z M385.94,547.56c0-7.24-2.22-11.88-7.26-11.88
				c-5.04,0-7.26,4.64-7.26,11.88c0,7.24,2.22,11.87,7.26,11.87C383.72,559.42,385.94,554.8,385.94,547.56z"/>
			<path class="st4" d="M411.28,525.13h11.78l1.02,5.6h0.35c3.63-3.59,7.51-6.68,13.51-6.68c6.19,0,10.03,2.61,12.38,7.34
				c3.8-3.92,7.91-7.34,13.93-7.34c9.78,0,14.1,7.04,14.1,18.2v27.72h-14.46V544.1c0-6.06-1.58-7.76-4.96-7.76
				c-2,0-4.33,1.22-6.89,3.84v29.79h-14.46V544.1c0-6.06-1.58-7.76-4.96-7.76c-1.99,0-4.33,1.22-6.89,3.84v29.79h-14.46V525.13z"/>
			<path class="st4" d="M490.93,525.13h11.78l1.02,4.26h0.35c3.41-3.09,7.88-5.34,12.46-5.34c10.71,0,17.45,8.97,17.45,22.79
				c0,15.41-9.15,24.21-18.75,24.21c-3.81,0-7.32-1.65-10.34-4.57l0.5,6.94v12.72h-14.46V525.13z M519.17,547
				c0-7.67-2.3-11.16-6.96-11.16c-2.51,0-4.56,1.04-6.83,3.58v17.37c2.07,1.84,4.29,2.46,6.38,2.46
				C515.82,559.26,519.17,555.92,519.17,547z"/>
			<path class="st4" d="M544.84,525.13h11.78l1.02,7.77h0.35c3.29-6.05,8.26-8.85,12.74-8.85c2.68,0,4.19,0.35,5.46,0.9l-2.38,12.45
				c-1.61-0.37-2.99-0.72-4.94-0.72c-3.3,0-7.32,2.07-9.58,7.88v25.41h-14.46V525.13z"/>
			<path class="st4" d="M581.71,557.37c0-9.38,7.33-14.54,24.78-16.37c-0.32-3.54-2.28-5.49-6.65-5.49c-3.47,0-7.04,1.4-11.56,3.9
				l-5.08-9.45c6.01-3.64,12.45-5.91,19.47-5.91c11.57,0,18.27,6.4,18.27,20.67v25.25h-11.78l-1.02-4.44h-0.35
				c-3.67,3.27-7.75,5.52-12.68,5.52C586.81,571.05,581.71,564.82,581.71,557.37z M606.49,556.51v-6.88
				c-8.3,1.17-10.97,3.67-10.97,6.57c0,2.44,1.68,3.72,4.59,3.72C602.84,559.92,604.54,558.56,606.49,556.51z"/>
			<path class="st4" d="M633.49,525.13h11.78l1.02,7.77h0.35c3.29-6.05,8.26-8.85,12.74-8.85c2.68,0,4.19,0.35,5.46,0.9l-2.38,12.45
				c-1.61-0.37-2.99-0.72-4.94-0.72c-3.3,0-7.32,2.07-9.58,7.88v25.41h-14.46V525.13z"/>
			<path class="st4" d="M255.53,627.08c0-19.55,13.21-30.76,28-30.76c7.67,0,13.88,3.58,17.93,7.68l-7.6,9.27
				c-2.91-2.62-5.92-4.48-10.01-4.48c-7.39,0-13.51,6.66-13.51,17.8c0,11.47,5.3,17.99,13.32,17.99c4.64,0,8.33-2.35,11.01-5.24
				l7.59,9.09c-4.91,5.72-11.54,8.63-19.11,8.63C268.24,657.05,255.53,646.96,255.53,627.08z"/>
			<path class="st4" d="M309.6,643.37c0-9.38,7.33-14.54,24.78-16.37c-0.32-3.54-2.28-5.49-6.65-5.49c-3.47,0-7.03,1.4-11.56,3.9
				l-5.08-9.45c6.01-3.64,12.45-5.91,19.47-5.91c11.57,0,18.27,6.4,18.27,20.67v25.25h-11.78l-1.02-4.44h-0.35
				c-3.67,3.27-7.75,5.52-12.68,5.52C314.7,657.05,309.6,650.82,309.6,643.37z M334.38,642.51v-6.88
				c-8.3,1.17-10.97,3.67-10.97,6.57c0,2.44,1.69,3.72,4.59,3.72C330.73,645.92,332.43,644.56,334.38,642.51z"/>
			<path class="st4" d="M361.37,611.13h11.78l1.02,5.6h0.35c3.63-3.59,7.51-6.68,13.51-6.68c6.19,0,10.03,2.61,12.38,7.34
				c3.8-3.92,7.91-7.34,13.93-7.34c9.78,0,14.1,7.04,14.1,18.2v27.72h-14.46V630.1c0-6.06-1.58-7.76-4.96-7.76
				c-2,0-4.33,1.22-6.89,3.84v29.79h-14.46V630.1c0-6.06-1.58-7.76-4.96-7.76c-1.99,0-4.33,1.22-6.89,3.84v29.79h-14.46V611.13z"/>
			<path class="st4" d="M440.07,597.75c0-4.3,3.43-7.37,8.19-7.37c4.77,0,8.19,3.07,8.19,7.37c0,4.28-3.43,7.37-8.19,7.37
				C443.49,605.12,440.07,602.04,440.07,597.75z M441.02,611.13h14.46v44.84h-14.46V611.13z"/>
			<path class="st4" d="M468.47,611.13h11.78l1.02,5.52h0.35c3.67-3.51,8.17-6.6,14.28-6.6c9.81,0,13.95,7.04,13.95,18.2v27.72
				h-14.46V630.1c0-6.06-1.57-7.76-4.98-7.76c-3.08,0-4.89,1.39-7.49,3.84v29.79h-14.46V611.13z"/>
			<path class="st4" d="M522.47,593.15h14.46v14.95l-0.66,7.9c3.19-2.86,7.52-5.95,13.63-5.95c9.81,0,13.95,7.04,13.95,18.2v27.72
				h-14.46V630.1c0-6.06-1.57-7.76-4.98-7.76c-3.08,0-4.89,1.39-7.49,3.84v29.79h-14.46V593.15z"/>
			<path class="st4" d="M573.93,633.56c0-14.9,10.64-23.51,22.06-23.51c11.42,0,22.06,8.61,22.06,23.51
				c0,14.88-10.64,23.49-22.06,23.49C584.57,657.05,573.93,648.44,573.93,633.56z M590.46,599.08c-1.6,0-2.54,1.15-2.89,4.51
				l-8.96-0.51c0.19-9.77,4.45-13.96,11.53-13.96c5.51,0,8.8,5.36,11.38,5.36c1.59,0,2.53-1.16,2.88-4.51l8.96,0.51
				c-0.19,9.76-4.45,13.96-11.53,13.96C596.32,604.44,593.03,599.08,590.46,599.08z M603.24,633.56c0-7.24-2.22-11.88-7.26-11.88
				c-5.04,0-7.26,4.64-7.26,11.88c0,7.24,2.22,11.87,7.26,11.87C601.03,645.42,603.24,640.8,603.24,633.56z"/>
			<path class="st4" d="M626.13,633.56c0-14.54,10.49-23.51,21.35-23.51c13.05,0,19.34,9.5,19.34,21.62c0,2.56-0.33,5.11-0.59,6.19
				H640.1c1.33,5.89,5.5,8.22,10.96,8.22c3.2,0,6.16-0.96,9.4-2.8l4.74,8.63c-4.73,3.3-10.98,5.13-16.13,5.13
				C636.11,657.05,626.13,648.43,626.13,633.56z M654.52,628.39c0-4.1-1.76-7.37-6.71-7.37c-3.77,0-6.98,2.35-7.88,7.37H654.52z"/>
			<path class="st4" d="M673.78,650.78l6.44-8.95c4.1,3.06,7.81,4.59,11.22,4.59c3.56,0,5.02-1.17,5.02-3.22
				c0-2.61-4.27-3.81-8.81-5.61c-5.34-2.09-11.56-5.85-11.56-13.23c0-8.59,7-14.31,17.47-14.31c7.13,0,12.3,2.88,16.18,5.81
				l-6.42,8.62c-3.21-2.33-6.35-3.79-9.28-3.79c-2.98,0-4.48,1-4.48,3c0,2.57,4.06,3.56,8.62,5.21c5.51,2.03,11.75,5.34,11.75,13.47
				c0,8.29-6.53,14.69-18.84,14.69C685.28,657.05,678.39,654.52,673.78,650.78z"/>
		</g>
	</g>
</g>
</svg>
