<?xml version="1.0" encoding="utf-8"?>
<!-- Generator: Adobe Illustrator 23.0.0, SVG Export Plug-In . SVG Version: 6.00 Build 0)  -->
<svg version="1.1" id="Camada_1" xmlns="http://www.w3.org/2000/svg" xmlns:xlink="http://www.w3.org/1999/xlink" x="0px" y="0px"
	 viewBox="0 0 1000 1000" style="enable-background:new 0 0 1000 1000;" xml:space="preserve">
<style type="text/css">
	.st0{display:none;}
	.st1{display:inline;fill:#FFA255;}
	.st2{fill:#593415;}
	.st3{opacity:0.1;}
	.st4{fill:#3E3D4D;}
	.st5{display:inline;}
	.st6{fill:#2D1E0A;}
</style>
<g class="st0">
	<path class="st1" d="M808.9,674.6c2-2,2-4,5-6c3-4,0-9,2-14s4-9,6-14c4-7,11-12,18-13c26-4,42-29,39-54c-1,14-4,27-15,37
		c-2,2-5,3-7,5c-10,5-21,5-30,11c-7,5-12,12-15,20C808.9,655.6,807.9,665.6,808.9,674.6L808.9,674.6z"/>
</g>
<g class="st0">
	<path class="st1" d="M792.9,533.3c5-3,6-9,5-13c-1-13-8-25-7-39c1-7,4-14,7-21c4-16,10-30,15-46c0-30,5-61,4-91c-7-10-10-23-21-31
		c-9-6-18-8-28-10c-13-1-26,1-39,3c-19,4-38,8-53,20c-9-32-14-66-35-94c-19-24-50-27-78-27c-36-2-73,4-107,18c-26,11-55,26-62,55
		c-9,35,3,68,16,99c-81,10-175,36-215,114c-9,28-9,58-2,87c3,10,7,17,12,26c4,5,8,10,13,14s10,7,16,9c3,0,5,1,7,2c8,1,16,1,24,1
		c1,17,2,33,7,49c0,1,0,3,0,4c6,18,13,36,26,52c1,1,0,2,1,3c23,30,55,50,92,53c28,2,56-4,83-11c38,5,77,7,115,6c12-1,24-1,36-2
		c17-2,33-3,50-7c-7-2-20-6-16-15c7-5,14-11,23-12c2-5,8-7,13-9c13-4,26-5,40-4c3-7,6-13,8-20c0-1,2-2,2-3c3-19-4-37,7-54
		c2-2,3-4,5-7c3-4,7-6,10-10c1-2,2-3,3-5c6-15-14-19-22-28c-6-8,3-15,8-21C768.9,556.3,783.9,548.3,792.9,533.3L792.9,533.3z"/>
</g>
<g id="Caminhao_4_">
	<g>
		<path class="st2" d="M484.6,946h8v54h15v-52c0,0,16,1,16,2s1,50,1,50h14l-1-47c0,0,3-1,16,3l1,44h15l-1-42c0,0,16,3,17,4
			s2,38,2,38h26l-2-47c0,0-1-8-9-11c-10-2-92-20-118-20"/>
		<path class="st2" d="M484.6,915h4l1-67c0,0,125,4,128,7c0,6,3,76,3,76h-33c0,0,28,3,32,18c1,16,3,51,3,51h48l1-23h-6v-34h-20V795
			c0,0,4-12,8-15s42-34,42-34l-17-16l-44,36c0,0-12,14-13,29s0,42,0,42h-9l-11-30c0,0-5-6-10-6s-107-2-107-2"/>
		<path class="st2" d="M645.6,843h21c0,0,11,1,16,13c9,0,17,0,17,0s1,0,2,2c0,2,0,64,0,64s1,3-3,3s-11,0-11,0s-6,11-14,11
			s-28,0-28,0v-3h26c0,0,8-1,12-8c-12,0-15,0-15,0s-3,2-3-3s0-64,0-64s-1-2,3-2s11,0,11,0s-6-10-14-10s-20,0-20,0V843z"/>
		<rect x="544.6" y="792" class="st2" width="26" height="4"/>
		<polygon class="st2" points="547.6,789 567.6,789 566.6,775 548.6,775 		"/>
		<polyline class="st2" points="484.6,796 497.6,796 497.6,792 484.6,792 		"/>
		<polyline class="st2" points="484.6,789 495.6,789 493.6,775 484.6,775 		"/>
	</g>
	<g class="st3">
		<path class="st4" d="M481.6,946h8v54h15v-52c0,0,16,1,16,2s1,50,1,50h14l-1-47c0,0,3-1,16,3l1,44h15l-1-42c0,0,16,3,17,4
			s2,38,2,38h26l-2-47c0,0-1-8-9-11c-10-2-92-20-118-20"/>
		<path class="st4" d="M481.6,915h4l1-67c0,0,125,4,128,7c0,6,3,76,3,76h-33c0,0,28,3,32,18c1,16,3,51,3,51h48l1-23h-6v-34h-20V795
			c0,0,4-12,8-15s42-34,42-34l-17-16l-44,36c0,0-12,14-13,29s0,42,0,42h-9l-11-30c0,0-5-6-10-6s-107-2-107-2"/>
		<path class="st4" d="M642.6,843h21c0,0,11,1,16,13c9,0,17,0,17,0s1,0,2,2c0,2,0,64,0,64s1,3-3,3s-11,0-11,0s-6,11-14,11
			s-28,0-28,0v-3h26c0,0,8-1,12-8c-12,0-15,0-15,0s-3,2-3-3s0-64,0-64s-1-2,3-2s11,0,11,0s-6-10-14-10s-20,0-20,0V843z"/>
		<rect x="541.6" y="792" class="st4" width="26" height="4"/>
		<polygon class="st4" points="544.6,789 564.6,789 563.6,775 545.6,775 		"/>
		<polyline class="st4" points="481.6,796 494.6,796 494.6,792 481.6,792 		"/>
		<polyline class="st4" points="481.6,789 492.6,789 490.6,775 481.6,775 		"/>
	</g>
	<g>
		<path class="st2" d="M484.6,946h-8v54h-15v-52c0,0-16,1-16,2s-1,50-1,50h-14l1-47c0,0-3-1-16,3l-1,44h-15l1-42c0,0-16,3-17,4
			s-2,38-2,38h-26l2-47c0,0,1-8,9-11c10-2,92-20,118-20"/>
		<path class="st2" d="M484.6,915h-4l-1-67c0,0-125,4-128,7c0,6-3,76-3,76h33c0,0-28,3-32,18c-1,16-3,51-3,51h-48l-1-23h6v-34h20
			V795c0,0-4-12-8-15s-42-34-42-34l17-16l44,36c0,0,12,14,13,29s0,42,0,42h9l11-30c0,0,5-6,10-6s107-2,107-2"/>
		<path class="st2" d="M323.6,843h-21c0,0-11,1-16,13c-9,0-17,0-17,0s-1,0-2,2c0,2,0,64,0,64s-1,3,3,3s11,0,11,0s6,11,14,11
			s28,0,28,0v-3h-26c0,0-8-1-12-8c12,0,15,0,15,0s3,2,3-3s0-64,0-64s1-2-3-2s-11,0-11,0s6-10,14-10s20,0,20,0V843z"/>
		<rect x="398.6" y="792" class="st2" width="26" height="4"/>
		<polygon class="st2" points="421.6,789 401.6,789 402.6,775 420.6,775 		"/>
		<polyline class="st2" points="484.6,796 471.6,796 471.6,792 484.6,792 		"/>
		<polyline class="st2" points="484.6,789 473.6,789 475.6,775 484.6,775 		"/>
	</g>
</g>
<g class="st0">
	<g class="st5">
		<g>
			<path class="st6" d="M303.1,541.1c0-19.5,13.2-30.8,28-30.8c7.7,0,13.9,3.6,17.9,7.7l-7.6,9.3c-2.9-2.6-5.9-4.5-10-4.5
				c-7.4,0-13.5,6.7-13.5,17.8c0,11.5,5.3,18,13.3,18c4.6,0,8.3-2.3,11-5.2l7.6,9.1c-4.9,5.7-11.5,8.6-19.1,8.6
				C315.8,571,303.1,561,303.1,541.1z"/>
			<path class="st6" d="M356.6,547.6c0-14.9,10.6-23.5,22.1-23.5c11.4,0,22.1,8.6,22.1,23.5c0,14.9-10.6,23.5-22.1,23.5
				S356.6,562.4,356.6,547.6z M385.9,547.6c0-7.2-2.2-11.9-7.3-11.9s-7.3,4.6-7.3,11.9s2.2,11.9,7.3,11.9
				C383.7,559.4,385.9,554.8,385.9,547.6z"/>
			<path class="st6" d="M411.3,525.1h11.8l1,5.6h0.4c3.6-3.6,7.5-6.7,13.5-6.7c6.2,0,10,2.6,12.4,7.3c3.8-3.9,7.9-7.3,13.9-7.3
				c9.8,0,14.1,7,14.1,18.2V570h-14.5v-25.9c0-6.1-1.6-7.8-5-7.8c-2,0-4.3,1.2-6.9,3.8V570h-14.5v-25.9c0-6.1-1.6-7.8-5-7.8
				c-2,0-4.3,1.2-6.9,3.8V570h-14.5L411.3,525.1L411.3,525.1z"/>
			<path class="st6" d="M490.9,525.1h11.8l1,4.3h0.4c3.4-3.1,7.9-5.3,12.5-5.3c10.7,0,17.5,9,17.5,22.8c0,15.4-9.2,24.2-18.8,24.2
				c-3.8,0-7.3-1.7-10.3-4.6l0.5,6.9v12.7h-14.5L490.9,525.1L490.9,525.1z M519.2,547c0-7.7-2.3-11.2-7-11.2c-2.5,0-4.6,1-6.8,3.6
				v17.4c2.1,1.8,4.3,2.5,6.4,2.5C515.8,559.3,519.2,555.9,519.2,547z"/>
			<path class="st6" d="M544.8,525.1h11.8l1,7.8h0.3c3.3-6,8.3-8.8,12.7-8.8c2.7,0,4.2,0.3,5.5,0.9l-2.4,12.5
				c-1.6-0.4-3-0.7-4.9-0.7c-3.3,0-7.3,2.1-9.6,7.9V570h-14.5L544.8,525.1L544.8,525.1z"/>
			<path class="st6" d="M581.7,557.4c0-9.4,7.3-14.5,24.8-16.4c-0.3-3.5-2.3-5.5-6.7-5.5c-3.5,0-7,1.4-11.6,3.9l-5.1-9.5
				c6-3.6,12.5-5.9,19.5-5.9c11.6,0,18.3,6.4,18.3,20.7V570h-11.8l-1-4.4h-0.3c-3.7,3.3-7.8,5.5-12.7,5.5
				C586.8,571,581.7,564.8,581.7,557.4z M606.5,556.5v-6.9c-8.3,1.2-11,3.7-11,6.6c0,2.4,1.7,3.7,4.6,3.7
				C602.8,559.9,604.5,558.6,606.5,556.5z"/>
			<path class="st6" d="M633.5,525.1h11.8l1,7.8h0.3c3.3-6,8.3-8.8,12.7-8.8c2.7,0,4.2,0.3,5.5,0.9l-2.4,12.5
				c-1.6-0.4-3-0.7-4.9-0.7c-3.3,0-7.3,2.1-9.6,7.9V570h-14.5L633.5,525.1L633.5,525.1z"/>
			<path class="st6" d="M255.5,627.1c0-19.5,13.2-30.8,28-30.8c7.7,0,13.9,3.6,17.9,7.7l-7.6,9.3c-2.9-2.6-5.9-4.5-10-4.5
				c-7.4,0-13.5,6.7-13.5,17.8c0,11.5,5.3,18,13.3,18c4.6,0,8.3-2.3,11-5.2l7.6,9.1c-4.9,5.7-11.5,8.6-19.1,8.6
				C268.2,657,255.5,647,255.5,627.1z"/>
			<path class="st6" d="M309.6,643.4c0-9.4,7.3-14.5,24.8-16.4c-0.3-3.5-2.3-5.5-6.6-5.5c-3.5,0-7,1.4-11.6,3.9l-5.1-9.5
				c6-3.6,12.5-5.9,19.5-5.9c11.6,0,18.3,6.4,18.3,20.7V656h-11.8l-1-4.4h-0.4c-3.7,3.3-7.8,5.5-12.7,5.5
				C314.7,657,309.6,650.8,309.6,643.4z M334.4,642.5v-6.9c-8.3,1.2-11,3.7-11,6.6c0,2.4,1.7,3.7,4.6,3.7
				C330.7,645.9,332.4,644.6,334.4,642.5z"/>
			<path class="st6" d="M361.4,611.1h11.8l1,5.6h0.4c3.6-3.6,7.5-6.7,13.5-6.7c6.2,0,10,2.6,12.4,7.3c3.8-3.9,7.9-7.3,13.9-7.3
				c9.8,0,14.1,7,14.1,18.2V656H414v-25.9c0-6.1-1.6-7.8-5-7.8c-2,0-4.3,1.2-6.9,3.8V656h-14.5v-25.9c0-6.1-1.6-7.8-5-7.8
				c-2,0-4.3,1.2-6.9,3.8V656h-14.5L361.4,611.1L361.4,611.1z"/>
			<path class="st6" d="M440.1,597.8c0-4.3,3.4-7.4,8.2-7.4c4.8,0,8.2,3.1,8.2,7.4c0,4.3-3.4,7.4-8.2,7.4
				C443.5,605.1,440.1,602,440.1,597.8z M441,611.1h14.5V656H441V611.1z"/>
			<path class="st6" d="M468.5,611.1h11.8l1,5.5h0.4c3.7-3.5,8.2-6.6,14.3-6.6c9.8,0,14,7,14,18.2V656h-14.5v-25.9
				c0-6.1-1.6-7.8-5-7.8c-3.1,0-4.9,1.4-7.5,3.8V656h-14.5L468.5,611.1L468.5,611.1z"/>
			<path class="st6" d="M522.5,593.2h14.5v15l-0.7,7.9c3.2-2.9,7.5-6,13.6-6c9.8,0,14,7,14,18.2V656h-14.5v-25.9
				c0-6.1-1.6-7.8-5-7.8c-3.1,0-4.9,1.4-7.5,3.8V656h-14.5L522.5,593.2L522.5,593.2z"/>
			<path class="st6" d="M573.9,633.6c0-14.9,10.6-23.5,22.1-23.5s22.1,8.6,22.1,23.5c0,14.9-10.6,23.5-22.1,23.5
				S573.9,648.4,573.9,633.6z M590.5,599.1c-1.6,0-2.5,1.2-2.9,4.5l-9-0.5c0.2-9.8,4.5-14,11.5-14c5.5,0,8.8,5.4,11.4,5.4
				c1.6,0,2.5-1.2,2.9-4.5l9,0.5c-0.2,9.8-4.5,14-11.5,14C596.3,604.4,593,599.1,590.5,599.1z M603.2,633.6c0-7.2-2.2-11.9-7.3-11.9
				c-5,0-7.3,4.6-7.3,11.9s2.2,11.9,7.3,11.9C601,645.4,603.2,640.8,603.2,633.6z"/>
			<path class="st6" d="M626.1,633.6c0-14.5,10.5-23.5,21.3-23.5c13,0,19.3,9.5,19.3,21.6c0,2.6-0.3,5.1-0.6,6.2h-26.1
				c1.3,5.9,5.5,8.2,11,8.2c3.2,0,6.2-1,9.4-2.8l4.7,8.6c-4.7,3.3-11,5.1-16.1,5.1C636.1,657,626.1,648.4,626.1,633.6z M654.5,628.4
				c0-4.1-1.8-7.4-6.7-7.4c-3.8,0-7,2.3-7.9,7.4H654.5z"/>
			<path class="st6" d="M673.8,650.8l6.4-9c4.1,3.1,7.8,4.6,11.2,4.6c3.6,0,5-1.2,5-3.2c0-2.6-4.3-3.8-8.8-5.6
				c-5.3-2.1-11.6-5.8-11.6-13.2c0-8.6,7-14.3,17.5-14.3c7.1,0,12.3,2.9,16.2,5.8l-6.4,8.6c-3.2-2.3-6.3-3.8-9.3-3.8
				c-3,0-4.5,1-4.5,3c0,2.6,4.1,3.6,8.6,5.2c5.5,2,11.8,5.3,11.8,13.5c0,8.3-6.5,14.7-18.8,14.7C685.3,657,678.4,654.5,673.8,650.8z
				"/>
		</g>
	</g>
</g>
</svg>
